<svg id="svg" version="1.1" xmlns="http://www.w3.org/2000/svg" xmlns:xlink="http://www.w3.org/1999/xlink" width="400" height="544.7302904564316" viewBox="0, 0, 400,544.7302904564316"><g id="svgg"><path id="path0" d="M300.581 49.138 C 276.344 51.881,231.877 77.451,186.058 114.991 C 142.373 150.783,71.065 221.066,57.000 242.193 C 49.424 253.574,47.181 266.344,49.960 282.281 C 53.914 304.952,75.484 333.490,105.996 356.415 C 112.684 361.441,119.311 366.751,124.315 371.094 C 133.693 379.234,146.522 388.361,179.282 410.203 C 201.471 424.996,215.438 435.159,227.552 445.326 C 236.391 452.745,243.132 458.123,247.154 460.964 C 248.970 462.247,255.087 466.581,260.747 470.594 C 276.577 481.819,280.455 484.289,288.782 488.454 C 313.054 500.596,330.347 497.265,343.502 477.913 C 359.880 453.820,350.834 432.665,313.029 406.652 C 300.730 398.189,290.965 390.814,279.866 381.603 C 263.299 367.857,245.626 354.724,230.852 345.179 C 197.426 323.585,173.602 306.032,146.722 283.195 C 140.333 277.767,137.230 274.920,137.166 274.425 C 137.061 273.615,172.551 237.619,184.080 226.843 C 244.485 170.384,307.159 125.477,325.551 125.477 C 328.504 125.477,333.952 120.361,339.336 112.531 C 360.973 81.064,338.810 44.811,300.581 49.138 " stroke="none" fill="#fbfbfb" fill-rule="evenodd"></path><path id="path1" d="M286.473 1.227 C 267.233 5.865,265.296 6.384,261.144 8.012 C 251.952 11.617,238.654 18.001,229.544 23.182 C 227.170 24.532,224.613 25.986,223.862 26.414 C 200.906 39.481,160.882 69.149,130.954 95.282 C 93.505 127.984,36.608 184.883,23.258 202.983 C 7.546 224.283,6.649 226.061,2.330 244.433 L 0.000 254.342 0.000 270.182 L 0.000 286.021 2.465 296.454 C 5.886 310.938,6.181 312.013,7.960 316.515 C 11.616 325.763,14.818 331.253,24.615 345.062 C 39.816 366.489,51.102 378.060,73.029 394.698 C 80.460 400.337,83.848 403.067,88.669 407.299 C 98.278 415.735,119.158 430.641,152.863 453.126 C 175.092 467.955,180.300 471.763,193.693 482.985 C 206.048 493.337,209.186 495.713,228.985 509.710 C 264.853 535.065,267.659 536.520,291.685 542.202 L 302.374 544.730 313.842 544.730 L 325.310 544.730 335.020 542.431 C 349.659 538.965,350.443 538.614,361.916 530.393 C 373.126 522.361,374.459 521.005,383.267 508.684 C 393.682 494.115,393.793 493.878,397.542 478.174 L 399.999 467.884 399.999 455.974 L 400.000 444.064 397.661 434.125 C 394.006 418.596,393.683 417.889,384.123 404.481 C 372.297 387.896,365.400 381.602,339.751 363.987 C 331.404 358.254,326.754 354.693,315.685 345.560 C 295.182 328.642,267.246 308.169,249.793 297.270 C 238.155 290.003,211.784 271.589,211.784 270.729 C 211.784 270.665,215.183 267.413,219.336 263.501 C 256.394 228.601,293.170 198.923,317.842 184.008 C 331.204 175.930,336.170 173.778,347.220 171.277 C 349.928 170.665,351.040 170.013,358.672 164.571 C 368.658 157.451,370.067 155.980,379.351 142.993 C 389.761 128.432,390.609 126.579,394.507 109.897 C 399.807 87.211,399.809 86.809,394.691 65.078 C 390.741 48.302,390.792 48.419,381.615 35.563 C 374.805 26.022,372.800 23.916,365.451 18.579 C 349.527 7.016,349.055 6.796,331.055 2.532 L 320.367 0.000 305.827 0.033 L 291.286 0.067 286.473 1.227 M315.187 49.627 C 339.661 53.949,353.583 76.853,345.854 100.083 C 342.331 110.669,330.492 125.477,325.551 125.477 C 307.159 125.477,244.485 170.384,184.080 226.843 C 172.551 237.619,137.061 273.615,137.166 274.425 C 137.230 274.920,140.333 277.767,146.722 283.195 C 173.602 306.032,197.426 323.585,230.852 345.179 C 245.626 354.724,263.299 367.857,279.866 381.603 C 290.965 390.814,300.730 398.189,313.029 406.652 C 350.834 432.665,359.880 453.820,343.502 477.913 C 330.347 497.265,313.054 500.596,288.782 488.454 C 280.455 484.289,276.577 481.819,260.747 470.594 C 255.087 466.581,248.970 462.247,247.154 460.964 C 243.132 458.123,236.391 452.745,227.552 445.326 C 215.438 435.159,201.471 424.996,179.282 410.203 C 146.522 388.361,133.693 379.234,124.315 371.094 C 119.311 366.751,112.684 361.441,105.996 356.415 C 70.911 330.054,50.861 300.913,49.113 273.743 C 47.574 249.806,52.907 241.838,106.042 188.694 C 174.172 120.553,224.711 80.708,270.207 59.267 C 290.193 49.849,302.050 47.308,315.187 49.627 " stroke="none" fill="#040404" fill-rule="evenodd"></path></g></svg>