<svg id="svg" xmlns="http://www.w3.org/2000/svg" xmlns:xlink="http://www.w3.org/1999/xlink" width="400" height="400" viewBox="0, 0, 400,400"><g id="svgg"><path id="path0" d="M96.733 21.720 C 78.584 33.123,75.631 57.905,90.562 73.500 C 93.984 77.075,97.620 80.000,98.640 80.000 C 116.037 80.000,180.473 128.288,229.975 178.422 L 251.422 200.143 237.945 211.572 C 222.197 224.925,196.391 243.879,180.276 253.928 C 166.092 262.773,148.302 275.878,134.000 288.016 C 127.950 293.150,116.250 301.900,108.000 307.459 C 77.521 327.997,70.561 346.919,86.183 366.779 C 99.647 383.895,117.467 382.441,146.000 361.900 C 152.050 357.544,159.250 352.457,162.000 350.595 C 164.750 348.733,172.400 342.583,179.000 336.929 C 185.600 331.275,200.450 320.393,212.000 312.747 C 241.502 293.217,254.069 284.340,261.000 278.135 C 264.300 275.181,270.150 270.459,274.000 267.642 C 301.380 247.605,319.955 222.303,321.510 202.925 C 323.270 180.999,320.229 175.926,282.187 137.327 C 193.483 47.322,124.464 4.298,96.733 21.720 " stroke="none" fill="#FFFFFF" fill-rule="evenodd"></path></g></svg>