<svg id="svg" version="1.1" xmlns="http://www.w3.org/2000/svg" xmlns:xlink="http://www.w3.org/1999/xlink" width="400" height="545.0622406639004" viewBox="0, 0, 400,545.0622406639004"><g id="svgg"><path id="path0" d="M85.716 49.134 C 62.255 51.560,46.591 77.872,54.457 101.644 C 58.155 112.823,69.091 125.176,76.157 126.159 C 97.607 129.142,161.448 175.567,217.789 229.153 C 234.482 245.030,262.905 273.782,262.905 274.792 C 262.905 275.307,260.077 277.889,252.365 284.414 C 229.537 303.731,204.659 322.433,182.854 336.668 C 150.578 357.740,142.090 363.943,115.583 385.836 C 110.666 389.897,96.578 400.452,89.793 405.159 C 77.110 413.957,74.446 415.979,68.296 421.477 C 44.471 442.776,42.566 465.935,62.973 486.195 C 79.953 503.053,99.756 499.287,138.013 471.928 C 142.164 468.959,147.794 464.976,150.523 463.078 C 155.980 459.282,162.313 454.306,171.471 446.618 C 185.839 434.558,196.976 426.492,226.556 406.727 C 254.059 388.349,266.588 379.424,274.523 372.558 C 280.673 367.236,285.840 363.062,292.224 358.259 C 332.739 327.779,353.270 295.429,351.041 265.588 C 349.684 247.430,342.262 237.438,294.935 190.060 C 200.806 95.826,125.396 45.031,85.716 49.134 " stroke="none" fill="#fbfbfb" fill-rule="evenodd"></path><path id="path1" d="M66.869 2.451 C 51.991 6.019,51.727 6.139,39.668 14.837 C 28.396 22.968,27.488 23.875,19.629 34.855 C 10.232 47.984,9.685 49.230,5.470 67.137 C 0.579 87.914,0.575 89.171,5.358 109.710 C 9.739 128.522,10.027 129.189,19.441 142.407 C 27.798 154.139,30.464 156.848,41.358 164.676 C 50.505 171.249,49.632 170.793,56.133 172.393 C 74.751 176.973,107.590 199.345,150.705 236.820 C 165.691 249.847,187.557 270.029,187.821 271.080 C 188.090 272.151,168.109 286.292,149.046 298.522 C 140.496 304.006,136.361 306.829,124.979 314.949 C 108.077 327.008,98.062 334.647,85.477 345.077 C 75.049 353.721,68.200 358.993,60.913 363.989 C 35.787 381.214,27.657 388.518,16.769 403.645 C 11.174 411.417,8.849 415.060,6.978 418.979 C 5.139 422.835,5.106 422.947,2.146 435.474 L 0.000 444.557 0.000 456.467 L 0.000 468.377 2.147 477.425 C 5.044 489.631,5.094 489.805,6.680 493.338 C 8.186 496.692,8.135 496.600,10.481 500.249 C 20.929 516.507,26.402 522.513,38.818 531.351 C 49.925 539.256,50.568 539.541,64.950 542.926 L 74.025 545.062 86.280 545.062 L 98.535 545.062 108.936 542.597 C 129.899 537.628,137.867 533.748,160.944 517.269 C 164.168 514.968,170.241 510.671,174.440 507.721 C 189.640 497.044,195.390 492.646,208.486 481.676 C 219.950 472.075,224.685 468.629,246.307 454.160 C 279.237 432.123,299.466 417.806,308.607 410.068 C 318.312 401.853,321.610 399.175,327.967 394.349 C 347.853 379.254,359.621 367.390,372.734 349.217 C 389.797 325.569,391.752 321.451,397.514 297.010 L 400.000 286.468 400.000 270.561 L 400.000 254.654 397.680 244.853 C 393.480 227.107,392.931 225.940,380.976 209.295 C 370.831 195.170,362.901 186.373,334.784 158.056 C 291.374 114.338,254.886 82.129,219.419 56.225 C 173.645 22.792,151.461 10.940,121.318 3.815 C 103.419 -0.417,106.744 -0.004,90.821 0.029 L 76.846 0.058 66.869 2.451 M99.253 49.672 C 140.873 55.683,210.868 105.899,294.935 190.060 C 342.262 237.438,349.684 247.430,351.041 265.588 C 353.270 295.429,332.739 327.779,292.224 358.259 C 285.840 363.062,280.673 367.236,274.523 372.558 C 266.588 379.424,254.059 388.349,226.556 406.727 C 196.976 426.492,185.839 434.558,171.471 446.618 C 162.313 454.306,155.980 459.282,150.523 463.078 C 147.794 464.976,142.164 468.959,138.013 471.928 C 99.756 499.287,79.953 503.053,62.973 486.195 C 42.566 465.935,44.471 442.776,68.296 421.477 C 74.446 415.979,77.110 413.957,89.793 405.159 C 96.578 400.452,110.666 389.897,115.583 385.836 C 142.090 363.943,150.578 357.740,182.854 336.668 C 204.659 322.433,229.537 303.731,252.365 284.414 C 260.077 277.889,262.905 275.307,262.905 274.792 C 262.905 273.782,234.482 245.030,217.789 229.153 C 161.448 175.567,97.607 129.142,76.157 126.159 C 70.595 125.385,61.380 116.402,56.796 107.285 C 48.606 90.995,52.161 70.963,65.432 58.634 C 74.637 50.083,84.324 47.516,99.253 49.672 " stroke="none" fill="#040404" fill-rule="evenodd"></path></g></svg>