<svg id="svg" xmlns="http://www.w3.org/2000/svg" xmlns:xlink="http://www.w3.org/1999/xlink" width="400" height="400" viewBox="0, 0, 400,400"><g id="svgg"><path id="path0" d="M273.809 29.783 C 233.614 45.509,186.171 82.055,123.813 145.327 C 85.771 183.926,82.730 188.999,84.490 210.925 C 86.045 230.303,104.620 255.605,132.000 275.642 C 135.850 278.459,141.700 283.181,145.000 286.135 C 151.931 292.340,164.498 301.217,194.000 320.747 C 205.550 328.393,220.400 339.275,227.000 344.929 C 233.600 350.583,241.250 356.733,244.000 358.595 C 246.750 360.457,253.950 365.544,260.000 369.900 C 288.533 390.441,306.353 391.895,319.817 374.779 C 335.439 354.919,328.479 335.997,298.000 315.459 C 289.750 309.900,278.050 301.150,272.000 296.016 C 257.698 283.878,239.908 270.773,225.724 261.928 C 209.609 251.879,183.803 232.925,168.055 219.572 L 154.578 208.143 176.025 186.422 C 225.527 136.288,289.963 88.000,307.360 88.000 C 311.412 88.000,321.789 74.517,323.908 66.500 C 331.519 37.701,304.390 17.819,273.809 29.783 " stroke="none" fill="#FFFFFF" fill-rule="evenodd"></path></g></svg>