<svg id="svg" version="1.1" xmlns="http://www.w3.org/2000/svg" xmlns:xlink="http://www.w3.org/1999/xlink" width="400" height="400" viewBox="0, 0, 400,400"><g id="svgg"><path id="path0" d="M114.750 35.757 C 98.211 37.467,86.932 55.618,91.807 72.679 C 93.974 80.263,102.509 90.736,106.983 91.300 C 123.675 93.406,171.701 128.582,214.803 170.274 C 223.769 178.945,243.124 198.641,243.014 198.981 C 242.872 199.419,230.707 209.732,223.755 215.307 C 211.836 224.866,196.245 236.239,184.967 243.602 C 161.635 258.834,155.500 263.318,136.339 279.144 C 132.785 282.079,122.601 289.709,117.696 293.111 C 108.424 299.543,106.514 300.997,102.064 305.006 C 84.916 320.454,83.572 336.946,98.263 351.656 C 110.476 363.886,124.895 361.155,152.553 341.376 C 155.553 339.229,159.623 336.351,161.596 334.978 C 165.555 332.224,170.119 328.637,176.820 323.012 C 187.071 314.407,195.319 308.436,216.557 294.245 C 237.325 280.367,245.303 274.658,252.070 268.831 C 256.600 264.929,259.432 262.654,264.415 258.910 C 288.833 240.567,304.160 219.618,306.197 201.800 C 308.175 184.505,304.634 177.521,281.810 153.702 C 207.903 76.572,145.577 32.569,114.750 35.757 " stroke="none" fill="#fbfbfb" fill-rule="evenodd"></path><path id="path1" d="M112.688 3.384 C 109.809 3.966,96.186 7.258,94.781 7.710 C 92.207 8.539,89.573 10.077,84.429 13.754 C 76.230 19.616,75.668 20.171,70.272 27.726 C 63.824 36.753,63.379 37.759,60.589 49.601 C 57.248 63.787,57.252 65.068,60.672 79.424 C 63.435 91.025,63.957 92.226,69.790 100.420 C 76.053 109.218,77.616 110.782,86.383 117.019 C 91.070 120.353,90.540 120.101,95.367 121.291 C 108.543 124.538,131.133 139.847,162.448 166.750 C 173.294 176.069,194.841 195.896,194.841 196.558 C 194.841 197.381,170.563 214.728,164.576 218.182 C 162.187 219.560,152.377 226.220,145.435 231.177 C 132.063 240.725,125.927 245.433,115.312 254.287 C 110.956 257.921,103.414 263.674,99.340 266.471 C 80.774 279.218,75.843 283.661,67.786 294.900 C 61.127 304.188,60.683 305.187,57.825 317.328 L 55.623 326.677 55.729 330.765 L 55.835 334.853 57.939 343.611 C 60.810 355.558,61.121 356.227,68.833 366.996 C 73.407 373.383,76.291 376.255,82.599 380.704 C 90.835 386.513,90.970 386.571,102.684 389.358 L 111.218 391.388 115.657 391.284 L 120.096 391.179 128.614 389.134 C 145.770 385.014,149.495 383.180,169.406 369.048 C 173.431 366.191,179.153 362.133,182.121 360.031 C 188.248 355.691,192.291 352.547,199.520 346.498 C 209.131 338.457,213.658 335.153,230.354 323.998 C 255.056 307.493,267.856 298.381,274.265 292.738 C 277.682 289.730,281.601 286.568,286.743 282.673 C 303.802 269.749,315.101 257.470,326.385 239.592 C 331.800 231.013,333.113 227.586,336.515 213.141 C 339.022 202.497,338.932 203.157,338.932 195.321 L 338.932 188.482 336.949 180.204 C 333.544 165.994,333.391 165.662,324.710 153.592 C 320.964 148.383,318.463 145.258,314.229 140.492 C 305.371 130.525,278.226 103.269,265.139 91.202 C 263.362 89.564,261.206 87.561,260.348 86.752 C 258.878 85.365,251.252 78.492,247.031 74.750 C 241.787 70.100,232.296 62.153,224.355 55.761 C 206.905 41.715,183.680 25.842,169.646 18.370 C 156.325 11.278,148.536 8.624,127.894 4.147 C 123.620 3.220,115.508 2.813,112.688 3.384 M124.418 36.129 C 157.127 40.851,215.353 84.347,281.810 153.702 C 304.634 177.521,308.175 184.505,306.197 201.800 C 304.160 219.618,288.833 240.567,264.415 258.910 C 259.432 262.654,256.600 264.929,252.070 268.831 C 245.303 274.658,237.325 280.367,216.557 294.245 C 195.319 308.436,187.071 314.407,176.820 323.012 C 170.119 328.637,165.555 332.224,161.596 334.978 C 159.623 336.351,155.553 339.229,152.553 341.376 C 124.895 361.155,110.476 363.886,98.263 351.656 C 83.572 336.946,84.916 320.454,102.064 305.006 C 106.514 300.997,108.424 299.543,117.696 293.111 C 122.601 289.709,132.785 282.079,136.339 279.144 C 155.500 263.318,161.635 258.834,184.967 243.602 C 196.245 236.239,211.836 224.866,223.755 215.307 C 230.707 209.732,242.872 199.419,243.014 198.981 C 243.124 198.641,223.769 178.945,214.803 170.274 C 171.701 128.582,123.675 93.406,106.983 91.300 C 104.946 91.043,99.763 86.591,96.650 82.425 C 86.793 69.230,89.472 50.269,102.571 40.511 C 108.489 36.103,115.081 34.780,124.418 36.129 " stroke="none" fill="#040404" fill-rule="evenodd"></path></g></svg>